<svg xmlns="http://www.w3.org/2000/svg" width="42.4" height="36.68" viewBox="0 0 42.4 36.68">
  <g id="contacts-img-2" transform="translate(896.023 -436.926)">
    <path id="Контур_25" data-name="Контур 25" d="M-896.023,447.808a15.046,15.046,0,0,1,.419-1.633,5.073,5.073,0,0,1,4.661-3.475c2.5-.172,5.018-.084,7.528-.108.177,0,.355,0,.578,0,.008-.183.02-.342.022-.5.011-.965-.03-1.934.042-2.895a2.384,2.384,0,0,1,2.383-2.247c3.532-.032,7.064-.02,10.6-.024.234,0,.469,0,.7.027a2.445,2.445,0,0,1,2.226,2.281c.046.922.027,1.848.036,2.771,0,.178,0,.357,0,.6h.507c2.152,0,4.3-.007,6.457,0a6.946,6.946,0,0,1,3.428.784,5.446,5.446,0,0,1,2.8,4.723c.017.234.017.469.017.7q0,9.292,0,18.583a6.545,6.545,0,0,1-.884,3.6,5.528,5.528,0,0,1-4.333,2.541,15.964,15.964,0,0,1-1.736.061q-14.508.005-29.016,0a7.624,7.624,0,0,1-3.037-.508,5.3,5.3,0,0,1-3.3-4.32c-.019-.119-.059-.234-.089-.351Zm21.183,24.044q7.389,0,14.777,0c.317,0,.636,0,.951-.027a3.6,3.6,0,0,0,3.431-2.411,6.547,6.547,0,0,0,.3-2.029c.022-6.18.013-12.361.012-18.542,0-.234,0-.47-.021-.7a3.559,3.559,0,0,0-2.313-3.41,6.664,6.664,0,0,0-2.184-.367q-14.943-.035-29.885-.012a7.246,7.246,0,0,0-1.113.079,3.5,3.5,0,0,0-3.092,2.387,6.83,6.83,0,0,0-.293,2.032q-.032,9.25-.009,18.5a7.806,7.806,0,0,0,.087,1.236,3.429,3.429,0,0,0,2.614,3.027,7.51,7.51,0,0,0,1.877.23C-884.747,471.861-879.794,471.852-874.84,471.852Zm6.274-29.277c0-.935,0-1.855,0-2.775,0-.981-.211-1.189-1.189-1.19h-10.132c-.11,0-.221,0-.331.006-.551.032-.81.271-.835.818-.023.523-.012,1.047-.013,1.571s0,1.036,0,1.569Z" fill="#357b82"/>
    <path id="Контур_26" data-name="Контур 26" d="M-799.789,538.9h-2.936c-.193,0-.386,0-.58,0a1.265,1.265,0,0,1-1.323-1.294q-.024-2.566,0-5.133a1.241,1.241,0,0,1,1.321-1.288c1.007-.015,2.015,0,3.022,0h.495c0-.194,0-.342,0-.489,0-.98-.009-1.959,0-2.939a1.317,1.317,0,0,1,1.448-1.437q2.422-.007,4.844,0a1.318,1.318,0,0,1,1.444,1.44c.012.979,0,1.959,0,2.939v.495h.651c.966,0,1.932-.009,2.9.005a1.228,1.228,0,0,1,1.285,1.236q.029,2.607,0,5.215a1.246,1.246,0,0,1-1.318,1.251c-1.007.011-2.015,0-3.022,0h-.482c-.009.179-.021.326-.022.472,0,.98.009,1.96,0,2.939a1.33,1.33,0,0,1-1.477,1.455q-2.38.01-4.761,0a1.338,1.338,0,0,1-1.488-1.488C-799.8,541.171-799.789,540.068-799.789,538.9Zm1.746-10.831v.485c0,1.089,0,2.179,0,3.269,0,.787-.323,1.1-1.1,1.107-.924,0-1.848,0-2.773,0h-.937v4.227c1.271,0,2.511,0,3.751,0,.74,0,1.057.315,1.062,1.06.008,1.09,0,2.179,0,3.269v.506h4.249v-.473c0-1.09,0-2.179,0-3.269,0-.789.316-1.091,1.113-1.093,1.09,0,2.179,0,3.269,0h.431v-4.235c-1.245,0-2.458,0-3.67,0-.84,0-1.152-.308-1.156-1.142-.005-1.09,0-2.179,0-3.269,0-.144-.017-.288-.027-.442Z" transform="translate(-78.905 -77.176)" fill="#357b82"/>
  </g>
</svg>
