<svg xmlns="http://www.w3.org/2000/svg" width="39.352" height="34.794" viewBox="0 0 39.352 34.794">
  <g id="contacts-img-1" transform="translate(813.5 -378.703)">
    <path id="Контур_97" data-name="Контур 97" d="M-813.5,393.949c.1-.394.178-.793.3-1.18a6.4,6.4,0,0,1,6.044-4.506c1.5-.015,3,0,4.5-.005h.454c0-.829-.031-1.62.009-2.409a12.375,12.375,0,0,1,.251-2.469,6.253,6.253,0,0,1,5.909-4.653c4.738-.041,9.478-.016,14.216-.015.416,0,.676.232.673.571s-.271.577-.718.578q-2.978.006-5.956,0-3.9,0-7.8,0a5.246,5.246,0,0,0-5.431,5.421q0,3.651,0,7.3A5.268,5.268,0,0,0-795.644,398q3.631.014,7.262,0a1.028,1.028,0,0,1,.858.4c1.119,1.3,2.253,2.589,3.385,3.879a1.2,1.2,0,0,0,1.4.442,1.213,1.213,0,0,0,.815-1.259c.006-.794,0-1.588,0-2.383,0-1.016.052-1.075,1.056-1.068a5.432,5.432,0,0,0,2.706-.6,5.108,5.108,0,0,0,2.85-4.631c.043-2.548.023-5.1.007-7.647a5.247,5.247,0,0,0-4.029-5.117c-.062-.016-.124-.032-.185-.051a.583.583,0,0,1-.458-.722.581.581,0,0,1,.727-.4,6.264,6.264,0,0,1,3.356,1.894,6.3,6.3,0,0,1,1.681,3.508.821.821,0,0,0,.066.173v8.994c-.063.286-.118.573-.19.856a6.443,6.443,0,0,1-6.034,4.881l-.4.022c0,.232,0,.458,0,.684a20.088,20.088,0,0,1-.065,2.146,2.14,2.14,0,0,1-1.567,1.815,2.238,2.238,0,0,1-2.348-.52c-.225-.205-.418-.446-.658-.707-.062.366-.106.7-.176,1.026a6.411,6.411,0,0,1-6.247,5.089q-3.516.014-7.031-.005a.764.764,0,0,0-.649.3q-1.605,1.862-3.238,3.7a2.231,2.231,0,0,1-2.3.725,2.226,2.226,0,0,1-1.723-1.631,3.358,3.358,0,0,1-.1-.872c-.014-.726,0-1.453,0-2.126a16.831,16.831,0,0,1-2.069-.39,6.309,6.309,0,0,1-4.372-4.6c-.014-.049-.021-.1-.03-.15-.075-.424.074-.715.4-.789s.6.114.72.52a7.221,7.221,0,0,0,.322.981,5.2,5.2,0,0,0,4.732,3.177c.268.015.538,0,.807.005a.572.572,0,0,1,.635.646c.007.961-.009,1.921.007,2.882a1.17,1.17,0,0,0,1.408,1.224,1.656,1.656,0,0,0,.816-.512c1.149-1.274,2.275-2.57,3.4-3.869a1,1,0,0,1,.829-.378c2.42.011,4.841.007,7.262.006a5.3,5.3,0,0,0,5.431-5.406,1.969,1.969,0,0,0-.618-1.631,9.969,9.969,0,0,1-.963-1.1.678.678,0,0,0-.589-.268q-3.458.014-6.916,0a6.442,6.442,0,0,1-6.11-4.1,6.309,6.309,0,0,1-.436-2.363c.006-1.074,0-2.148,0-3.256-.147-.008-.27-.02-.393-.02-1.447,0-2.894-.006-4.342,0a5.264,5.264,0,0,0-5.4,5.419q0,3.036,0,6.071c0,.325-.029.621-.384.757s-.572-.085-.771-.331Z" fill="#357b82"/>
    <path id="Контур_98" data-name="Контур 98" d="M-654.755,593.129a.568.568,0,0,1-.556.6.582.582,0,0,1-.592-.573.578.578,0,0,1,.564-.6A.559.559,0,0,1-654.755,593.129Z" transform="translate(-141.447 -191.941)" fill="#00575c"/>
    <path id="Контур_99" data-name="Контур 99" d="M-680.271,593.131a.569.569,0,0,1-.557.6.582.582,0,0,1-.591-.574.577.577,0,0,1,.564-.6A.559.559,0,0,1-680.271,593.131Z" transform="translate(-118.546 -191.942)" fill="#00575c"/>
    <path id="Контур_100" data-name="Контур 100" d="M-707.338,593.151a.58.58,0,0,1-.583.58.577.577,0,0,1-.566-.6.566.566,0,0,1,.581-.576A.572.572,0,0,1-707.338,593.151Z" transform="translate(-94.251 -191.941)" fill="#00575c"/>
    <path id="Контур_101" data-name="Контур 101" d="M-597.605,431.5c0,.355,0,.7,0,1.043,0,.472-.226.75-.588.744s-.561-.273-.564-.724q0-.73,0-1.46c0-.511.174-.69.679-.725a2.5,2.5,0,0,0,2.382-2.412,2.5,2.5,0,0,0-2.161-2.533,2.509,2.509,0,0,0-2.824,2.334,1.008,1.008,0,0,1-.3.606.528.528,0,0,1-.519,0,.916.916,0,0,1-.308-.6,3.623,3.623,0,0,1,3.017-3.472,3.651,3.651,0,0,1,4.17,2.833,3.649,3.649,0,0,1-2.7,4.29C-597.408,431.456-597.493,431.475-597.605,431.5Z" transform="translate(-189.997 -40.895)" fill="#357b82"/>
    <path id="Контур_102" data-name="Контур 102" d="M-570.86,523.655a.588.588,0,0,1-.578.591.578.578,0,0,1-.57-.594.582.582,0,0,1,.573-.593A.593.593,0,0,1-570.86,523.655Z" transform="translate(-216.744 -129.562)" fill="#00575c"/>
  </g>
</svg>
