<svg xmlns="http://www.w3.org/2000/svg" width="9.429" height="18.194" viewBox="0 0 9.429 18.194">
  <g id="facebook-icon" transform="translate(175.162 -478.229)">
    <path id="Контур_38" data-name="Контур 38" d="M-172.367,496.423c0-.077-.009-.153-.009-.23q0-3.907,0-7.814v-.25h-2.786v-3.235h2.786c0-.091,0-.16,0-.229,0-.846-.018-1.694.017-2.539a4.046,4.046,0,0,1,1.063-2.715,3.734,3.734,0,0,1,2-1.071,7.6,7.6,0,0,1,1.892-.094c.514.02,1.027.064,1.541.1a1.2,1.2,0,0,1,.129.023v2.884h-.186c-.633.009-1.267,0-1.9.033a1.144,1.144,0,0,0-1.2,1.205c-.032.78-.011,1.562-.013,2.344a.225.225,0,0,0,.02.052h3.173l-.416,3.234h-2.767c-.006.069-.014.12-.014.171q0,4,0,8.01c0,.041.006.082.009.123Z" fill="#357b82"/>
  </g>
</svg>
