<svg xmlns="http://www.w3.org/2000/svg" width="19.03" height="19.017" viewBox="0 0 19.03 19.017">
  <g id="inst-icon" transform="translate(512.201 -454.759)">
    <path id="Контур_40" data-name="Контур 40" d="M-403.292,552.381h3.761v1.712c.052-.027.078-.031.087-.046a4.11,4.11,0,0,1,3.643-1.975,5.416,5.416,0,0,1,2.508.469,3.653,3.653,0,0,1,1.923,2.407,9.232,9.232,0,0,1,.352,2.614c.017,2.446.01,4.893.012,7.34,0,.037-.005.075-.009.128h-3.938v-.26c0-2.075.006-4.15-.008-6.225a8.113,8.113,0,0,0-.125-1.407,1.825,1.825,0,0,0-2.293-1.6,2.017,2.017,0,0,0-1.881,1.966,9.583,9.583,0,0,0-.093,1.318c-.01,1.982,0,3.964,0,5.946v.294h-3.935Z" transform="translate(-102.166 -91.286)" fill="#357b82"/>
    <path id="Контур_41" data-name="Контур 41" d="M-506.792,557.154h3.915v12.677h-3.915Z" transform="translate(-5.074 -96.055)" fill="#357b82"/>
    <path id="Контур_42" data-name="Контур 42" d="M-507.636,457.04a2.3,2.3,0,0,1-2.268,2.311,2.314,2.314,0,0,1-2.3-2.309,2.3,2.3,0,0,1,2.272-2.282A2.286,2.286,0,0,1-507.636,457.04Z" fill="#357b82"/>
  </g>
</svg>
