<svg id="like-active" xmlns="http://www.w3.org/2000/svg" width="21.813" height="18.79" viewBox="0 0 21.813 18.79">
  <path id="Контур_56" data-name="Контур 56" d="M-499.687,473.528v1.108a1.685,1.685,0,0,0-.037.183,6.343,6.343,0,0,1-1.056,2.93,14.077,14.077,0,0,1-2.846,3.032c-2.274,1.893-4.567,3.762-6.85,5.644a.152.152,0,0,1-.234,0q-2.985-2.453-5.974-4.9a24.075,24.075,0,0,1-2.91-2.71,7.278,7.278,0,0,1-1.707-3.075c-.087-.363-.134-.736-.2-1.1v-1.108c.071-.425.118-.855.218-1.274a5.79,5.79,0,0,1,2.346-3.582,5.9,5.9,0,0,1,7.989,1.424c.119.163.232.331.357.51l.128-.195a5.93,5.93,0,0,1,7-2.362,5.6,5.6,0,0,1,3.552,4.2C-499.8,472.67-499.759,473.1-499.687,473.528Z" transform="translate(521.5 -467.69)" fill="#ee6055"/>
</svg>
