<svg xmlns="http://www.w3.org/2000/svg" width="16.076" height="20.103" viewBox="0 0 16.076 20.103">
  <g id="marker-icon" transform="translate(796.492 -399.157)">
    <g id="Сгруппировать_87" data-name="Сгруппировать 87" transform="translate(0 4)">
      <path id="Контур_18" data-name="Контур 18" d="M-796.492,403.385a8.111,8.111,0,0,1,6.018-7.965,8.019,8.019,0,0,1,9.92,6.373,7.714,7.714,0,0,1-1.753,6.568c-1.86,2.214-3.764,4.391-5.651,6.583-.363.422-.631.42-1-.006-1.892-2.2-3.792-4.389-5.669-6.6A7.724,7.724,0,0,1-796.492,403.385Zm8.036,10.6c.091-.1.161-.18.229-.259,1.7-1.97,3.4-3.934,5.082-5.912a6.85,6.85,0,0,0,1.637-5.655,6.974,6.974,0,0,0-8.121-5.867,6.668,6.668,0,0,0-5.422,4.533,6.771,6.771,0,0,0,1.279,6.977c.854,1.033,1.746,2.034,2.62,3.05Z" transform="translate(0 0)" fill="#357b82"/>
      <path id="Контур_19" data-name="Контур 19" d="M-718.515,468.661a4.348,4.348,0,0,1-4.493,4.207,4.342,4.342,0,0,1-4.35-4.285,4.354,4.354,0,0,1,4.494-4.176A4.335,4.335,0,0,1-718.515,468.661Zm-4.448,2.99a3.073,3.073,0,0,0,3.176-3.019,3.074,3.074,0,0,0-3.155-3.01,3.075,3.075,0,0,0-3.145,2.991A3.07,3.07,0,0,0-722.963,471.651Z" transform="translate(-65.517 -65.669)" fill="#357b82"/>
    </g>
  </g>
</svg>
