<svg xmlns="http://www.w3.org/2000/svg" width="17.967" height="19" viewBox="0 0 17.967 19">
  <g id="search-icon" transform="translate(963.986 -452.621)">
    <path id="Контур_20" data-name="Контур 20" d="M-946.02,470.935l-.648.686-5.41-5.753a6.827,6.827,0,0,1-5.9,1.8,6.869,6.869,0,0,1-4.528-2.865,7.889,7.889,0,0,1,.785-10.134,6.87,6.87,0,0,1,9.585-.191,7.924,7.924,0,0,1,.687,10.728Zm-4.552-10.689a6.419,6.419,0,0,0-6.166-6.615,6.4,6.4,0,0,0-6.289,6.531,6.419,6.419,0,0,0,6.166,6.66A6.4,6.4,0,0,0-950.572,460.246Z" transform="translate(0)" fill="#357b82"/>
  </g>
</svg>
