<svg xmlns="http://www.w3.org/2000/svg" width="45.192" height="34.953" viewBox="0 0 45.192 34.953">
  <g id="specialties-img-6" transform="translate(840.5 -412.115)">
    <path id="Контур_68" data-name="Контур 68" d="M-840.5,429.931a1.163,1.163,0,0,1,1.2-.623c.566.035,1.136.008,1.763.008a11.685,11.685,0,0,1-.737-9.446,11.594,11.594,0,0,1,4.477-5.8,11.876,11.876,0,0,1,15.764,2.444,11.693,11.693,0,0,1,8.918-4.306,11.136,11.136,0,0,1,6.644,2.005,11.29,11.29,0,0,1,4.629,6.5,11.6,11.6,0,0,1-.694,7.975c.715,0,1.371.028,2.023-.009a1.157,1.157,0,0,1,1.2.627v.53a1.174,1.174,0,0,1-1.2.627c-.925-.035-1.853-.016-2.779,0a.642.642,0,0,0-.415.157c-1.34,1.382-2.667,2.777-4,4.165q-.474.493-.968.966a.878.878,0,0,1-1.326.076.888.888,0,0,1,.081-1.327q1.865-1.879,3.74-3.748c.071-.071.136-.147.247-.267-.176-.012-.3-.028-.422-.028-1.647,0-3.295-.01-4.942,0a1.022,1.022,0,0,1-1.056-.692c-.652-1.557-1.315-3.109-2-4.738-.1.194-.166.326-.228.462q-1.757,3.871-3.513,7.743c-.018.04-.036.08-.052.121a.942.942,0,0,1-.937.725c-.488-.016-.712-.337-.874-.747-.5-1.256-1-2.508-1.508-3.761-.065-.163-.136-.323-.249-.59-.081.246-.137.4-.183.558q-1.242,4.226-2.486,8.451a1.716,1.716,0,0,1-.27.594.866.866,0,0,1-1.5-.335c-.534-1.446-1.048-2.9-1.568-4.351q-1.458-4.063-2.914-8.126c-.043-.119-.1-.235-.175-.426-.085.178-.144.287-.19.4q-.925,2.263-1.848,4.527c-.273.668-.469.8-1.195.8h-3.82c.129.15.2.249.29.335q6.332,6.335,12.667,12.667a3.626,3.626,0,0,0,5.4.007c1.231-1.223,2.455-2.454,3.683-3.68a2.5,2.5,0,0,1,.361-.322.866.866,0,0,1,1.124.136.888.888,0,0,1,.07,1.1,2.976,2.976,0,0,1-.326.358q-1.808,1.811-3.619,3.619a5.385,5.385,0,0,1-7.966.013q-6.807-6.8-13.585-13.621a1.708,1.708,0,0,0-1.469-.623c-.687.054-1.383-.015-2.072.021a1.139,1.139,0,0,1-1.2-.63Zm25.491,1.023c.124-.265.205-.433.282-.6q1.736-3.833,3.469-7.667c.187-.416.427-.758.926-.752s.733.343.911.768c.788,1.883,1.594,3.758,2.384,5.64a.473.473,0,0,0,.506.362q2.824-.024,5.649,0a.493.493,0,0,0,.507-.308,9.487,9.487,0,0,0,1.106-5.708,9.363,9.363,0,0,0-5.766-7.859,9.327,9.327,0,0,0-9.721,1.072,24.487,24.487,0,0,0-2.488,2.3c-.631.6-1.021.611-1.65-.015-.49-.488-.968-.988-1.469-1.464a9.675,9.675,0,0,0-8.667-2.687,9.881,9.881,0,0,0-6.623,14.969.613.613,0,0,0,.6.317c1.383-.014,2.766-.022,4.148,0a.646.646,0,0,0,.736-.479c.8-2.021,1.631-4.029,2.452-6.041.017-.041.031-.082.046-.124a.935.935,0,0,1,.919-.749c.5.01.738.341.894.78q2.116,5.933,4.246,11.861c.058.163.125.323.218.561.149-.5.275-.92.4-1.34q1.112-3.782,2.224-7.565c.187-.636.554-.926,1.05-.844a.987.987,0,0,1,.763.713C-816.326,427.681-815.689,429.261-815.009,430.954Z" fill="#357b82"/>
    <path id="Контур_69" data-name="Контур 69" d="M-571.682,625.607a.871.871,0,0,1-.861.878.879.879,0,0,1-.9-.888.874.874,0,0,1,.886-.854A.868.868,0,0,1-571.682,625.607Z" transform="translate(-235.629 -187.605)" fill="#00575c"/>
  </g>
</svg>
