<svg xmlns="http://www.w3.org/2000/svg" width="33.451" height="33.458" viewBox="0 0 33.451 33.458">
  <g id="specialties-img-8" transform="translate(529.861 -461.106)">
    <path id="Контур_82" data-name="Контур 82" d="M-496.411,466.33v.327a6.665,6.665,0,0,1-.446.554q-1.609,1.624-3.234,3.231a.366.366,0,0,0-.077.524,14.088,14.088,0,0,1,1.592,4.971,14.107,14.107,0,0,1-1.617,8.8,14.36,14.36,0,0,1-12.629,7.774,13.756,13.756,0,0,1-7.183-1.706.365.365,0,0,0-.523.074q-1.613,1.642-3.253,3.258a6.123,6.123,0,0,1-.53.424h-.327a6.059,6.059,0,0,1-.53-.424q-2.166-2.154-4.321-4.318c-.5-.5-.5-.8-.006-1.3,1.1-1.1,2.2-2.207,3.307-3.3a.366.366,0,0,0,.082-.524,14.052,14.052,0,0,1-1.6-4.971,14.1,14.1,0,0,1,1.615-8.808,14.354,14.354,0,0,1,12.6-7.772,13.706,13.706,0,0,1,7.244,1.728.33.33,0,0,0,.471-.074c1.1-1.117,2.212-2.223,3.321-3.331.491-.491.8-.49,1.3.006q2.16,2.159,4.317,4.322A6.1,6.1,0,0,1-496.411,466.33Zm-22.878,23.338a13.263,13.263,0,0,0,15.606-2.4,13.26,13.26,0,0,0,2.371-15.582c-.082.075-.163.142-.237.217q-.733.743-1.463,1.489c-.005.686.007,1.372-.022,2.056a7.263,7.263,0,0,1-.157,1.454,4.612,4.612,0,0,1-4.456,3.5,4.73,4.73,0,0,1-4.512-3.24.521.521,0,0,0-.275-.3,4.746,4.746,0,0,1-3.267-4.841,4.609,4.609,0,0,1,3.417-4.108,9.769,9.769,0,0,1,2.492-.178,2.012,2.012,0,0,0,1.887-.789,9.951,9.951,0,0,1,.938-.95,13.341,13.341,0,0,0-16.5,3.368,13.222,13.222,0,0,0-1.474,14.626c.441-.444.862-.9,1.32-1.317a1.1,1.1,0,0,0,.376-.907,16.594,16.594,0,0,1,.08-2.64,4.6,4.6,0,0,1,4.128-3.842,4.716,4.716,0,0,1,4.923,3.24.616.616,0,0,0,.288.293,11.219,11.219,0,0,1,1.244.633,4.578,4.578,0,0,1,1.635,5.665,4.367,4.367,0,0,1-3.8,2.783c-.853.081-1.718.042-2.577.063a.546.546,0,0,0-.333.072C-518.206,488.566-518.742,489.117-519.289,489.669Zm-5.139,3.3a3.136,3.136,0,0,1,.227-.287q2.851-2.856,5.7-5.71a1.145,1.145,0,0,1,.87-.363c.871,0,1.743.019,2.613-.018a3.1,3.1,0,0,0,2.577-1.5,3.31,3.31,0,0,0-2.043-5.048.978.978,0,0,1-.865-.868,2.961,2.961,0,0,0-.811-1.537,3.362,3.362,0,0,0-3.66-.807,3.331,3.331,0,0,0-2.075,2.881c-.029.849-.026,1.7-.013,2.548a1.268,1.268,0,0,1-.411.982q-2.852,2.831-5.685,5.681c-.081.081-.156.167-.225.242Zm22.607-30.274c-.106.126-.177.224-.261.309-1.832,1.834-3.676,3.656-5.49,5.507a1.682,1.682,0,0,1-1.381.563c-.76-.034-1.524-.016-2.286.008a3.126,3.126,0,0,0-2.312,1.119,3.322,3.322,0,0,0,1.736,5.426.987.987,0,0,1,.875.818,3.2,3.2,0,0,0,2.415,2.52,3.313,3.313,0,0,0,4.139-2.953c.035-.87.025-1.742.016-2.613a1.241,1.241,0,0,1,.4-.955q2.852-2.831,5.688-5.678a2.174,2.174,0,0,1,.3-.212c-.118-.127-.175-.192-.236-.253Z" transform="translate(0 0)" fill="#357b82"/>
    <path id="Контур_83" data-name="Контур 83" d="M-483.933,710.279a.683.683,0,0,1-.675-.971,1.132,1.132,0,0,1,.2-.257q1.8-1.8,3.6-3.6a1.233,1.233,0,0,1,.256-.2.659.659,0,0,1,.78.11.669.669,0,0,1,.1.783,1.28,1.28,0,0,1-.2.256c-1.191,1.195-2.381,2.391-3.583,3.575A2.286,2.286,0,0,1-483.933,710.279Z" transform="translate(-40.454 -218.543)" fill="#357b82"/>
    <path id="Контур_84" data-name="Контур 84" d="M-436.889,623.775l-1.276.194c-.154-.344-.376-.567-.758-.521a.676.676,0,0,0-.591.628h-1.29a1.9,1.9,0,0,1,1.642-1.945A1.96,1.96,0,0,1-436.889,623.775Z" transform="translate(-79.736 -144.168)" fill="#357b82"/>
    <path id="Контур_85" data-name="Контур 85" d="M-432.784,688.1c-.1.442-.785,1.159-1.169,1.121a.858.858,0,0,1-.577-.328.706.706,0,0,1-.006-.627,2.23,2.23,0,0,1,.7-.7.78.78,0,0,1,.657.006C-433,687.659-432.912,687.916-432.784,688.1Z" transform="translate(-85.295 -202.714)" fill="#357b82"/>
    <path id="Контур_86" data-name="Контур 86" d="M-303.237,493.2a.678.678,0,0,1-.666-.977.936.936,0,0,1,.155-.209q1.843-1.849,3.691-3.693a.6.6,0,0,1,.735-.188.927.927,0,0,1,.418.518.74.74,0,0,1-.192.579c-1.232,1.26-2.481,2.5-3.734,3.742A1.518,1.518,0,0,1-303.237,493.2Z" transform="translate(-202.262 -24.148)" fill="#357b82"/>
    <path id="Контур_87" data-name="Контур 87" d="M-336.607,601.306c.409-.061.792-.126,1.177-.17.056-.006.144.07.18.13a.663.663,0,0,0,.641.371.672.672,0,0,0,.6-.476.281.281,0,0,1,.191-.162c.378-.016.757-.008,1.132-.008a1.917,1.917,0,0,1-1.621,1.96A1.988,1.988,0,0,1-336.607,601.306Z" transform="translate(-173.047 -125.256)" fill="#357b82"/>
    <path id="Контур_88" data-name="Контур 88" d="M-320.255,538.69a.953.953,0,0,1-.135.309,4.666,4.666,0,0,1-.618.619.638.638,0,0,1-.835-.052.628.628,0,0,1-.066-.856,3.249,3.249,0,0,1,.674-.651A.655.655,0,0,1-320.255,538.69Z" transform="translate(-186.085 -68.817)" fill="#357b82"/>
  </g>
</svg>
