<svg xmlns="http://www.w3.org/2000/svg" width="38.815" height="39.453" viewBox="0 0 38.815 39.453">
  <g id="specialties-img-7" transform="translate(857.531 -366.5)">
    <path id="Контур_70" data-name="Контур 70" d="M-840.808,405.953a2.943,2.943,0,0,1-1.692-.921,12.361,12.361,0,0,1-.8-1.421c-.067-.117-.159-.281-.266-.305a15.092,15.092,0,0,1-4.96-2.1c-1.612.863-2.925.77-3.97-.272s-1.135-2.389-.281-3.973a13.778,13.778,0,0,1-1.913-4.292,1.27,1.27,0,0,0-.957-1.109,2.863,2.863,0,0,1-1.876-2.931,3.007,3.007,0,0,1,2.222-2.7.579.579,0,0,0,.486-.52,14.034,14.034,0,0,1,1.872-4.486.4.4,0,0,0,.036-.509,2.975,2.975,0,0,1,.391-3.715,3.013,3.013,0,0,1,3.721-.427c.077.045.155.09.192.031,1.2-.532,2.4-1.08,3.613-1.587a9.449,9.449,0,0,1,1.333-.368.4.4,0,0,0,.349-.327,2.983,2.983,0,0,1,2.9-2.357,3.007,3.007,0,0,1,2.931,2.329.4.4,0,0,0,.334.349,14.429,14.429,0,0,1,4.609,1.875c.113.07.238.121.456.229a4.237,4.237,0,0,0-.1-.487,6.959,6.959,0,0,1,5.608-9.4.93.93,0,0,0,.177-.063h1.464c.592.155,1.2.27,1.774.473a6.537,6.537,0,0,1,2.7,1.861c.311.347.332.712.061.946s-.608.172-.908-.16a5.635,5.635,0,0,0-4.2-1.958,5.806,5.806,0,0,0-5.594,7.864,1.394,1.394,0,0,1-.328,1.749.985.985,0,0,1-1.27.165c-.717-.372-1.4-.827-2.143-1.126a26.307,26.307,0,0,0-2.851-.909c-.753-.206-.763-.171-.862-.943a1.844,1.844,0,0,0-2.947-1.262,1.822,1.822,0,0,0-.722,1.389c-.039.568-.14.669-.7.778a13.592,13.592,0,0,0-5.119,2.116c-.522.355-.621.345-1.111-.056a1.878,1.878,0,0,0-2.553.1,1.852,1.852,0,0,0-.01,2.547c.344.4.364.554.069.985a13.59,13.59,0,0,0-2.182,5.3c-.083.459-.223.551-.823.62a1.83,1.83,0,0,0-1.565,1.146,1.724,1.724,0,0,0,.244,1.815,1.787,1.787,0,0,0,1.353.712c.612.049.694.13.808.717a13.6,13.6,0,0,0,2.1,5.085c.372.549.365.636-.047,1.142a1.879,1.879,0,0,0,.088,2.525,1.851,1.851,0,0,0,2.546.048c.433-.374.568-.388,1.047-.061a13.574,13.574,0,0,0,5.227,2.151c.491.091.573.21.649.838a1.828,1.828,0,0,0,1.155,1.558,1.725,1.725,0,0,0,1.814-.254,1.789,1.789,0,0,0,.7-1.357c.044-.6.13-.683.727-.8a13.625,13.625,0,0,0,5.085-2.1c.544-.368.621-.36,1.141.059a1.882,1.882,0,0,0,2.525-.1,1.852,1.852,0,0,0,.034-2.547c-.361-.417-.378-.563-.07-1.015a13.6,13.6,0,0,0,2.168-5.26c.088-.478.218-.571.808-.636a1.836,1.836,0,0,0,1.576-1.132,1.722,1.722,0,0,0-.226-1.817,1.784,1.784,0,0,0-1.384-.727c-.57-.038-.677-.141-.784-.7a13.32,13.32,0,0,0-1.928-4.828,1.181,1.181,0,0,1-.1-1.451,1.572,1.572,0,0,1,1.77-.907c.25.057.5.114.754.149a5.8,5.8,0,0,0,6.458-7.021c-.022-.1-.053-.2-.072-.3a.581.581,0,0,1,.435-.739.543.543,0,0,1,.681.462,11.467,11.467,0,0,1,.217,2.4,6.9,6.9,0,0,1-5.672,6.3,6.729,6.729,0,0,1-2.866-.073c-.216-.051-.4-.111-.575.13s-.079.381.043.575a14.146,14.146,0,0,1,1.868,4.529.44.44,0,0,0,.37.4,2.976,2.976,0,0,1,2.323,2.89,3,3,0,0,1-2.292,2.919.478.478,0,0,0-.4.421,14.02,14.02,0,0,1-1.888,4.561.432.432,0,0,0-.021.542,2.982,2.982,0,0,1-.374,3.658,3,3,0,0,1-3.679.5.522.522,0,0,0-.644.006,14.058,14.058,0,0,1-4.525,1.878c-.166.037-.324.043-.383.289a2.938,2.938,0,0,1-2.411,2.351.461.461,0,0,0-.1.051Z" fill="#357b82"/>
    <path id="Контур_71" data-name="Контур 71" d="M-800.528,461.759a12.651,12.651,0,0,1,12.947,11.4,12.536,12.536,0,0,1-10.394,13.469,12.55,12.55,0,0,1-14.5-10.817,12.26,12.26,0,0,1,.805-6.192c.195-.484.477-.659.829-.515s.427.465.238.951a11.358,11.358,0,0,0,5.5,14.4,11.386,11.386,0,0,0,16.2-7.962,11.265,11.265,0,0,0-8.642-13.273c-4.569-1.007-8.394.453-11.418,4.014-.083.1-.156.2-.236.3-.275.339-.624.414-.9.194a.583.583,0,0,1-.022-.886,18.311,18.311,0,0,1,1.4-1.585A12.224,12.224,0,0,1-800.528,461.759Z" transform="translate(-40.338 -85.472)" fill="#357b82"/>
    <path id="Контур_72" data-name="Контур 72" d="M-675.7,572.009a4.056,4.056,0,0,1,4.037,4.052,4.059,4.059,0,0,1-4.053,4.037,4.06,4.06,0,0,1-4.037-4.053A4.057,4.057,0,0,1-675.7,572.009Zm2.881,4.044a2.9,2.9,0,0,0-2.89-2.888,2.9,2.9,0,0,0-2.889,2.889,2.9,2.9,0,0,0,2.89,2.889A2.9,2.9,0,0,0-672.818,576.053Z" transform="translate(-159.513 -184.395)" fill="#357b82"/>
    <path id="Контур_73" data-name="Контур 73" d="M-745.483,623.01A2.512,2.512,0,0,1-743,625.526a2.513,2.513,0,0,1-2.546,2.49,2.513,2.513,0,0,1-2.461-2.535A2.512,2.512,0,0,1-745.483,623.01Zm1.325,2.509a1.356,1.356,0,0,0-1.341-1.354,1.354,1.354,0,0,0-1.354,1.34,1.357,1.357,0,0,0,1.341,1.355A1.357,1.357,0,0,0-744.158,625.52Z" transform="translate(-98.27 -230.156)" fill="#357b82"/>
    <path id="Контур_74" data-name="Контур 74" d="M-735.935,512.761a2.316,2.316,0,0,1,2.3,2.313,2.319,2.319,0,0,1-2.343,2.308,2.318,2.318,0,0,1-2.279-2.333A2.315,2.315,0,0,1-735.935,512.761Zm1.142,2.292a1.169,1.169,0,0,0-1.164-1.136,1.168,1.168,0,0,0-1.145,1.154,1.168,1.168,0,0,0,1.182,1.155A1.17,1.17,0,0,0-734.792,515.052Z" transform="translate(-107.019 -131.234)" fill="#357b82"/>
    <path id="Контур_75" data-name="Контур 75" d="M-784.536,566.757A1.741,1.741,0,0,1-782.8,568.5a1.741,1.741,0,0,1-1.751,1.725,1.742,1.742,0,0,1-1.715-1.722A1.741,1.741,0,0,1-784.536,566.757Zm.01,1.158a.582.582,0,0,0-.583.547.583.583,0,0,0,.566.6.584.584,0,0,0,.583-.548A.582.582,0,0,0-784.526,567.915Z" transform="translate(-63.942 -179.682)" fill="#357b82"/>
    <path id="Контур_76" data-name="Контур 76" d="M-574.1,396.941a1.72,1.72,0,0,1,1.736,1.728,1.721,1.721,0,0,1-1.74,1.725,1.72,1.72,0,0,1-1.717-1.71A1.72,1.72,0,0,1-574.1,396.941Zm.575,1.715a.556.556,0,0,0-.6-.554.555.555,0,0,0-.536.578.557.557,0,0,0,.6.555A.556.556,0,0,0-573.523,398.655Z" transform="translate(-252.769 -27.313)" fill="#357b82"/>
    <path id="Контур_77" data-name="Контур 77" d="M-559.079,445.393a1.721,1.721,0,0,1-1.737-1.728,1.72,1.72,0,0,1,1.7-1.726,1.719,1.719,0,0,1,1.756,1.708A1.72,1.72,0,0,1-559.079,445.393Zm-.011-1.16a.555.555,0,0,0,.569-.546.555.555,0,0,0-.566-.587.554.554,0,0,0-.569.546A.556.556,0,0,0-559.089,444.232Z" transform="translate(-266.23 -67.688)" fill="#357b82"/>
    <path id="Контур_78" data-name="Контур 78" d="M-651.945,525.553a.778.778,0,0,1-.8.753.778.778,0,0,1-.734-.782.777.777,0,0,1,.8-.753A.778.778,0,0,1-651.945,525.553Z" transform="translate(-183.086 -142.01)" fill="#357b82"/>
    <path id="Контур_79" data-name="Контур 79" d="M-719.454,585.549a.777.777,0,0,1-.8.759.778.778,0,0,1-.74-.777.777.777,0,0,1,.8-.758A.777.777,0,0,1-719.454,585.549Z" transform="translate(-122.513 -195.846)" fill="#357b82"/>
    <path id="Контур_80" data-name="Контур 80" d="M-651.944,600.534a.777.777,0,0,0-.759-.757.775.775,0,0,0-.776.778.777.777,0,0,0,.759.757A.776.776,0,0,0-651.944,600.534Z" transform="translate(-183.087 -209.309)" fill="#fff"/>
    <path id="Контур_81" data-name="Контур 81" d="M-651.944,600.534a.776.776,0,0,1-.776.778.777.777,0,0,1-.759-.757.775.775,0,0,1,.776-.778A.777.777,0,0,1-651.944,600.534Z" transform="translate(-183.087 -209.309)" fill="#357b82"/>
  </g>
</svg>
