<svg xmlns="http://www.w3.org/2000/svg" width="31.131" height="46.166" viewBox="0 0 31.131 46.166">
  <g id="specialties-img-3" transform="translate(767.987 -415.4)">
    <path id="Контур_33" data-name="Контур 33" d="M-752.863,461.566a3.391,3.391,0,0,1-1.6-.949,2.869,2.869,0,0,1-.657-1.872c0-.871,0-1.741,0-2.68H-756.6c-.451,0-.9.011-1.352-.005a2.714,2.714,0,0,1-2.662-2.692,2.7,2.7,0,0,1,2.648-2.7c.929-.033,1.859-.006,2.82-.006v-4.375a15.475,15.475,0,0,1-11.222-8.5,14.877,14.877,0,0,1-1.242-10.087A15.546,15.546,0,0,1-751.8,415.413a15.576,15.576,0,0,1,14.872,14.016,15.618,15.618,0,0,1-12.752,16.859v4.365c.886,0,1.767,0,2.648,0a2.678,2.678,0,0,1,2.127.906,2.57,2.57,0,0,1,.474,2.856,2.581,2.581,0,0,1-2.39,1.636c-.78.037-1.563.01-2.344.012h-.537v2.094c0,2.039-.4,2.649-2.255,3.408Zm-.9-13.1c0,.887,0,1.774,0,2.66,0,.636-.239.873-.871.876-1.037.005-2.074,0-3.111,0a1.372,1.372,0,0,0-1.515,1.368,1.37,1.37,0,0,0,1.5,1.335c.962,0,1.924,0,2.886,0,.944,0,1.112.164,1.112,1.089,0,.977,0,1.954,0,2.931a1.365,1.365,0,0,0,1.359,1.478,1.368,1.368,0,0,0,1.344-1.493c.006-1.037,0-2.074,0-3.111,0-.659.237-.89.9-.893,1.037,0,2.074,0,3.111,0a1.366,1.366,0,0,0,1.485-1.35,1.366,1.366,0,0,0-1.485-1.352c-1.052-.006-2.1,0-3.156,0-.607,0-.853-.245-.855-.846q-.008-2.66,0-5.321a.73.73,0,0,1,.693-.841c.411-.085.832-.132,1.239-.231a14.222,14.222,0,0,0,10.776-15.688,13.732,13.732,0,0,0-5.182-9.182,13.745,13.745,0,0,0-11.063-2.961,13.687,13.687,0,0,0-8.843,5.1,13.726,13.726,0,0,0-3.031,10.788,13.882,13.882,0,0,0,5.391,9.354,13.758,13.758,0,0,0,6.5,2.805c.642.1.81.313.812.966C-753.763,446.784-753.764,447.626-753.764,448.468Z" transform="translate(0)" fill="#357b82"/>
    <path id="Контур_34" data-name="Контур 34" d="M-708.817,462.824a11.525,11.525,0,0,1-9.26,11.279,11.5,11.5,0,0,1-13.6-9.689,11.233,11.233,0,0,1,2.156-8.458c.318-.432.688-.547,1.029-.322.36.237.4.651.069,1.1a9.93,9.93,0,0,0-1.995,6.674,9.7,9.7,0,0,0,3.8,7.327,10.057,10.057,0,0,0,13.987-1.3,10.148,10.148,0,0,0-1.5-14.644,10.073,10.073,0,0,0-12.166-.152c-.074.052-.146.106-.223.152a.678.678,0,0,1-.963-.129.649.649,0,0,1,.208-.977,17.557,17.557,0,0,1,2.487-1.439,11.465,11.465,0,0,1,15.045,6.061A11.052,11.052,0,0,1-708.817,462.824Z" transform="translate(-32.106 -31.877)" fill="#357b82"/>
  </g>
</svg>
