<svg xmlns="http://www.w3.org/2000/svg" width="39.11" height="36.68" viewBox="0 0 39.11 36.68">
  <g id="specialties-img-1" transform="translate(762.5 -390.363)">
    <path id="Контур_61" data-name="Контур 61" d="M-762.5,467.952a3.342,3.342,0,0,1,1.119-1.9,2.927,2.927,0,0,1,3.189-.418,2.894,2.894,0,0,1,1.795,2.745c.03,1.9.008,3.793.009,5.69v.448a3.509,3.509,0,0,1,2.61,1.342,8.988,8.988,0,0,0,3.309,2.516,13.26,13.26,0,0,0,2.932.8,4.427,4.427,0,0,1,3.81,4.233c.044,3.385.018,6.771.015,10.157a.75.75,0,0,1-.813.813q-3.99.009-7.98,0a.76.76,0,0,1-.826-.839c-.006-1.235-.011-2.47,0-3.7a.46.46,0,0,0-.307-.489c-1.086-.528-2.168-1.063-3.242-1.614a9.828,9.828,0,0,1-5.559-7.839,2.141,2.141,0,0,0-.066-.256Zm10.694,24.877h6.562c0-3.157.029-6.288-.014-9.417a2.917,2.917,0,0,0-2.43-2.719c-.648-.128-1.3-.263-1.929-.451a9.117,9.117,0,0,1-4.325-2.373c-.448-.486-.918-.956-1.408-1.4a1.514,1.514,0,0,0-2.533.809,1.542,1.542,0,0,0,.51,1.48q1.881,1.872,3.752,3.754a.759.759,0,0,1,.047,1.147.776.776,0,0,1-1.123-.072c-1.29-1.284-2.588-2.561-3.858-3.864a3.044,3.044,0,0,1,.4-4.647.611.611,0,0,0,.23-.417q.022-3.112.007-6.224a1.519,1.519,0,0,0-1.544-1.553,1.52,1.52,0,0,0-1.506,1.552c-.005,3.513-.061,7.027.019,10.539a8.021,8.021,0,0,0,4.394,7.191c1.32.735,2.691,1.38,4.053,2.037a1.086,1.086,0,0,1,.707,1.128C-751.828,490.486-751.806,491.644-751.806,492.828Z" transform="translate(0 -67.341)" fill="#357b82"/>
    <path id="Контур_62" data-name="Контур 62" d="M-544.216,479.818c-.128.619-.209,1.252-.395,1.853a16.953,16.953,0,0,1-.771,1.944.743.743,0,0,1-1.042.409.746.746,0,0,1-.318-1.073,9.635,9.635,0,0,0,1.007-4.683c-.031-3.208,0-6.416-.011-9.624a1.523,1.523,0,0,0-2-1.506,1.5,1.5,0,0,0-1.046,1.407q-.016,3.17,0,6.339a.488.488,0,0,0,.175.334,3.051,3.051,0,0,1,.343,4.8q-1.844,1.855-3.7,3.7a.8.8,0,0,1-.992.241.751.751,0,0,1-.149-1.251c.595-.611,1.2-1.209,1.806-1.812.657-.657,1.317-1.312,1.97-1.972a1.535,1.535,0,0,0,.092-2.245,1.534,1.534,0,0,0-2.245.077c-.409.4-.816.8-1.215,1.215a10.029,10.029,0,0,1-5.952,2.828,3.07,3.07,0,0,0-2.821,3.137q-.006,4.354,0,8.707v.364h6.569v-.414c0-1.095,0-2.19,0-3.284a.81.81,0,0,1,.474-.8c.944-.47,1.883-.951,2.83-1.416a.753.753,0,0,1,1.052.3.752.752,0,0,1-.37,1.059c-.71.37-1.425.732-2.15,1.072a.483.483,0,0,0-.312.523c.013,1.184.007,2.368.005,3.552,0,.7-.266.961-.976.961q-3.838,0-7.675,0c-.706,0-.972-.264-.972-.965q0-4.793,0-9.586a4.59,4.59,0,0,1,4.2-4.735,8.334,8.334,0,0,0,5.091-2.449c.34-.362.7-.7,1.052-1.054a3.225,3.225,0,0,1,2.337-1.091v-.394c0-1.922-.012-3.845.006-5.767a3.033,3.033,0,0,1,2.408-2.916,3.04,3.04,0,0,1,3.424,1.74c.112.252.182.523.272.785Z" transform="translate(-179.174 -67.519)" fill="#357b82"/>
    <path id="Контур_63" data-name="Контур 63" d="M-669.615,392.853c.507-.423,1.016-.843,1.52-1.269a5.924,5.924,0,0,1,8.779,1.846,7.774,7.774,0,0,1-.321,8.387,18.869,18.869,0,0,1-3.608,4.024c-1.854,1.65-3.743,3.259-5.621,4.882a.765.765,0,0,1-1.158.041c-2.305-2.022-4.632-4.021-6.895-6.09a12.01,12.01,0,0,1-3.1-4.21,7.66,7.66,0,0,1,.6-7.367,5.9,5.9,0,0,1,9.559-.543c.124.156.251.31.377.466Zm.116,16.362a1.84,1.84,0,0,0,.168-.111c1.915-1.676,3.85-3.33,5.736-5.039a12.918,12.918,0,0,0,3.081-3.807,6.084,6.084,0,0,0-.2-6.188,4.359,4.359,0,0,0-6.478-1.224,9.878,9.878,0,0,0-1.538,1.922c-.448.648-1.058.67-1.475.007a12.316,12.316,0,0,0-.933-1.345,4.308,4.308,0,0,0-6.369-.26,5.769,5.769,0,0,0-1.55,5.238,8,8,0,0,0,2.1,4A85.888,85.888,0,0,0-669.5,409.216Z" transform="translate(-73.472)" fill="#357b82"/>
    <path id="Контур_64" data-name="Контур 64" d="M-424.965,660.54a.769.769,0,0,1-.76-.781.769.769,0,0,1,.762-.741.769.769,0,0,1,.76.781A.77.77,0,0,1-424.965,660.54Z" transform="translate(-302.475 -241.293)" fill="#357b82"/>
  </g>
</svg>
