<svg xmlns="http://www.w3.org/2000/svg" width="37.173" height="36.716" viewBox="0 0 37.173 36.716">
  <g id="specialties-img-10" transform="translate(1362.908 -468.2)">
    <path id="Контур_91" data-name="Контур 91" d="M-1362.908,485.392c.094-.681.161-1.367.288-2.042a18.055,18.055,0,0,1,7.941-12.081,17.724,17.724,0,0,1,11.711-3,17.837,17.837,0,0,1,10.782,4.747,17.737,17.737,0,0,1,5.765,10.783,18.035,18.035,0,0,1-3.883,14.306c-.187.236-.387.462-.6.716.091.1.176.2.267.287q2.168,2.169,4.336,4.338c.194.195.377.4.566.6v.436a.927.927,0,0,1-.887.429c-5.832-.009-11.665-.025-17.5,0a18.25,18.25,0,0,1-10.527-3.054,18.1,18.1,0,0,1-7.974-12.1c-.127-.675-.193-1.361-.288-2.042Zm34.974,18.248c-.087-.112-.112-.152-.145-.185q-2-2-4.006-4c-.455-.452-.458-.715-.03-1.195,4.394-4.92,5.768-10.591,3.812-16.88a16.915,16.915,0,0,0-18.5-11.751,16.17,16.17,0,0,0-9.271,4.337,16.509,16.509,0,0,0-5.282,15.548,16.537,16.537,0,0,0,8.8,12.124,17.137,17.137,0,0,0,8.549,2.013c5.2-.033,10.406-.009,15.609-.009Z" fill="#357b82"/>
    <path id="Контур_92" data-name="Контур 92" d="M-1194.541,636.055a2.543,2.543,0,0,1-2.537-2.534,2.555,2.555,0,0,1,2.548-2.529,2.552,2.552,0,0,1,2.519,2.521A2.541,2.541,0,0,1-1194.541,636.055Zm-.008-3.788a1.245,1.245,0,0,0-1.258,1.263,1.268,1.268,0,0,0,1.266,1.266,1.269,1.269,0,0,0,1.258-1.274A1.245,1.245,0,0,0-1194.549,632.267Z" transform="translate(-149.777 -147.033)" fill="#357b82"/>
    <path id="Контур_93" data-name="Контур 93" d="M-1263.044,633.553a2.527,2.527,0,0,1-2.532,2.5,2.539,2.539,0,0,1-2.524-2.554,2.55,2.55,0,0,1,2.538-2.509A2.534,2.534,0,0,1-1263.044,633.553Zm-2.512-1.284a1.244,1.244,0,0,0-1.274,1.246,1.265,1.265,0,0,0,1.248,1.283,1.289,1.289,0,0,0,1.285-1.256A1.268,1.268,0,0,0-1265.556,632.269Z" transform="translate(-85.63 -147.035)" fill="#357b82"/>
    <path id="Контур_94" data-name="Контур 94" d="M-1123.429,636.058a2.527,2.527,0,0,1-2.52-2.552,2.535,2.535,0,0,1,2.53-2.51,2.547,2.547,0,0,1,2.526,2.52A2.538,2.538,0,0,1-1123.429,636.058Zm1.266-2.532a1.244,1.244,0,0,0-1.265-1.256,1.268,1.268,0,0,0-1.268,1.263,1.288,1.288,0,0,0,1.274,1.267A1.267,1.267,0,0,0-1122.163,633.526Z" transform="translate(-214.02 -147.037)" fill="#357b82"/>
  </g>
</svg>
