<svg xmlns="http://www.w3.org/2000/svg" width="23.846" height="38.543" viewBox="0 0 23.846 38.543">
  <g id="specialties-img-5" transform="translate(917.988 -362.642)">
    <path id="Контур_67" data-name="Контур 67" d="M-905.605,362.642c.141.045.282.092.424.135a3.005,3.005,0,0,1,2.142,2.794c0,.1,0,.2,0,.324a9.751,9.751,0,0,1,.949-.249,3.007,3.007,0,0,1,3.5,2.906c.014.588,0,1.177,0,1.689a8.526,8.526,0,0,1,1.746-.174,2.966,2.966,0,0,1,2.7,3.048c.011,1.919,0,3.838,0,5.758,0,3.45.009,6.9,0,10.349A11.916,11.916,0,0,1-903.2,400.84a11.915,11.915,0,0,1-14.607-9.624,13.756,13.756,0,0,1-.157-2.1c-.017-3.048.033-6.1-.024-9.144a2.393,2.393,0,0,1,3.144-2.451,13.536,13.536,0,0,1,1.318.489v-.388c0-2.5-.008-4.993,0-7.489a3,3,0,0,1,3.244-3.042,8.034,8.034,0,0,1,1.2.261c0-.5,0-1.01,0-1.519a3,3,0,0,1,2.473-3.138.406.406,0,0,0,.1-.055Zm-6.316,16.292q0,4.273,0,8.545c0,.138,0,.277-.009.414a.773.773,0,0,1-.769.728.8.8,0,0,1-.814-.687,2.561,2.561,0,0,1-.011-.376c0-2.12,0-4.241,0-6.362a2.148,2.148,0,0,0-1.656-2.114c-.808-.2-1.175.087-1.175.909,0,3.037-.008,6.073.006,9.11a11.374,11.374,0,0,0,.138,1.873,10.3,10.3,0,0,0,12.525,8.331,10.1,10.1,0,0,0,7.873-9.332c.131-5.631.053-11.266.049-16.9a1.667,1.667,0,0,0-.247-.81,1.373,1.373,0,0,0-1.585-.564,1.407,1.407,0,0,0-.986,1.369q-.007,3.9,0,7.792c0,.735-.285,1.127-.815,1.119s-.789-.387-.789-1.1q0-5.966,0-11.933a3.35,3.35,0,0,0-.035-.562,1.382,1.382,0,0,0-1.438-1.171,1.412,1.412,0,0,0-1.367,1.533q0,6.061,0,12.121c0,.733-.289,1.126-.817,1.114s-.783-.39-.783-1.108q0-7.434,0-14.869c0-.138.006-.277-.006-.414a1.42,1.42,0,0,0-1.824-1.281,1.46,1.46,0,0,0-1.014,1.542q0,7.491,0,14.982c0,.138.005.277-.008.414a.756.756,0,0,1-.587.7c-.542.158-1-.245-1-.887q0-4.461,0-8.921c0-.678.012-1.355,0-2.033a1.416,1.416,0,0,0-1.888-1.343,1.461,1.461,0,0,0-.949,1.514Q-911.923,374.6-911.921,378.934Z" transform="translate(0 0)" fill="#357b82"/>
  </g>
</svg>
