<svg xmlns="http://www.w3.org/2000/svg" width="36.203" height="40.514" viewBox="0 0 36.203 40.514">
  <g id="specialties-img-9" transform="translate(1136.694 -451.5)">
    <path id="Контур_89" data-name="Контур 89" d="M-1123.57,492.014a23.474,23.474,0,0,1-2.462-.669,13.7,13.7,0,0,1-4.985-3.535,20.674,20.674,0,0,1-5.219-9.3,14.937,14.937,0,0,1,.182-8,.776.776,0,0,1,.816-.657.75.75,0,0,1,.728.609.927.927,0,0,1-.021.425c-1.26,4.318-.383,8.318,1.829,12.1a17.349,17.349,0,0,0,5.785,6.161,7.739,7.739,0,0,0,3.968,1.285,4.813,4.813,0,0,0,2.467-.588,3.664,3.664,0,0,1,3.756-.01,5.508,5.508,0,0,0,4.7.167,12.389,12.389,0,0,0,4.669-3.229,18.549,18.549,0,0,0,4.9-8.8,12.6,12.6,0,0,0-1.94-10.549,8.508,8.508,0,0,0-7.716-3.81,9.168,9.168,0,0,0-5.583,2.411c-.07.06-.137.123-.206.185a.847.847,0,0,1-1.374,0,9.891,9.891,0,0,0-3.221-2.029,8.4,8.4,0,0,0-8.1,1.024c-.1.067-.188.145-.288.208a.786.786,0,0,1-1.093-.156.748.748,0,0,1,.179-1.112,17.349,17.349,0,0,1,2.679-1.484,9.758,9.758,0,0,1,7.748.279c.13.057.261.113.524.227-.2-.8-.33-1.51-.546-2.193a9.35,9.35,0,0,0-1.785-3.185,2.186,2.186,0,0,1,.129-3.211c.479-.49.952-.986,1.437-1.47a2.143,2.143,0,0,1,3.6.6c.463.973.844,1.984,1.262,2.978.045.107.087.215.153.376.073-.145.123-.242.171-.339a8.9,8.9,0,0,1,7.133-5.154,2.321,2.321,0,0,0,.265-.068h1.58c.436.084.871.173,1.308.252a.944.944,0,0,1,.812.8,9.063,9.063,0,0,1-3.526,9.491c-.09.064-.173.138-.253.2.023.043.026.06.035.064.087.03.173.061.261.087a10.312,10.312,0,0,1,5.649,4.018,14.3,14.3,0,0,1,2.217,12.076,20.237,20.237,0,0,1-5.143,9.247,13.829,13.829,0,0,1-5.03,3.6,24.42,24.42,0,0,1-2.412.68h-1.5a12.507,12.507,0,0,1-2.927-.988,1.764,1.764,0,0,0-1.29.013,12.119,12.119,0,0,1-2.891.975Zm7.887-31.156.124.09a3.662,3.662,0,0,1,.266-.337c.713-.721,1.432-1.437,2.148-2.155a.813.813,0,0,1,.853-.272.788.788,0,0,1,.292,1.361c-.733.756-1.486,1.494-2.229,2.241-.085.086-.161.181-.275.311.156.01.246.019.336.02a7.433,7.433,0,0,0,7.421-8.582c-.042-.267-.174-.34-.411-.372a7.274,7.274,0,0,0-5.978,1.751A7.284,7.284,0,0,0-1115.683,460.858Zm-1.459,2.079a21.328,21.328,0,0,0-2.267-8.5c-.283-.562-.676-.623-1.12-.177s-.886.9-1.327,1.353c-.508.521-.51.682-.06,1.235a11.1,11.1,0,0,1,2.6,6.882.952.952,0,0,0,.618.853c.106.062.383-.148.57-.255.148-.084.266-.225.418-.295C-1117.18,463.79-1116.968,463.409-1117.142,462.937Z" fill="#357b82"/>
    <path id="Контур_90" data-name="Контур 90" d="M-1115.557,596.352a.8.8,0,0,1-.786-.808.794.794,0,0,1,.785-.768.8.8,0,0,1,.788.807A.8.8,0,0,1-1115.557,596.352Z" transform="translate(-18.204 -128.159)" fill="#357b82"/>
  </g>
</svg>
