<svg xmlns="http://www.w3.org/2000/svg" width="18.287" height="15.05" viewBox="0 0 18.287 15.05">
  <g id="twitter-icon" transform="translate(944.071 -473.363)">
    <path id="Контур_39" data-name="Контур 39" d="M-944.071,486.686a7.677,7.677,0,0,0,5.49-1.561,3.9,3.9,0,0,1-3.518-2.643h1.629l.01-.063a3.912,3.912,0,0,1-2.955-3.761,3.926,3.926,0,0,0,1.693.454,4.036,4.036,0,0,1-1.644-2.9,3.723,3.723,0,0,1,.517-2.135,10.7,10.7,0,0,0,7.7,3.928,11.465,11.465,0,0,1,.006-1.192,3.6,3.6,0,0,1,2.418-3.184,3.627,3.627,0,0,1,3.924.777.377.377,0,0,0,.433.107c.634-.245,1.269-.487,1.9-.731.059-.023.115-.055.226-.108A3.754,3.754,0,0,1-927.8,475.7l.034.075,1.983-.55c-.044.068-.09.146-.142.219a7.265,7.265,0,0,1-1.535,1.571.369.369,0,0,0-.167.352,10.762,10.762,0,0,1-6.171,10.045,10.691,10.691,0,0,1-10.074-.563c-.058-.033-.115-.07-.171-.107C-944.054,486.738-944.056,486.719-944.071,486.686Z" transform="translate(0 0)" fill="#357b82"/>
  </g>
</svg>
